<svg width="15" height="15" viewBox="0 0 15 15" fill="none" xmlns="http://www.w3.org/2000/svg">
<path d="M1.55916 6.85377C1.26393 6.8546 0.974969 6.93899 0.725703 7.0972C0.476436 7.2554 0.277055 7.48094 0.150625 7.74774C0.0241944 8.01453 -0.0241172 8.31166 0.0112789 8.60476C0.046675 8.89787 0.164332 9.17496 0.350639 9.40398L4.32226 14.2692C4.46386 14.445 4.64538 14.5845 4.85173 14.6761C5.05808 14.7677 5.28331 14.8088 5.50871 14.7958C5.99078 14.77 6.426 14.5121 6.70348 14.0881L14.9535 0.80137C14.9549 0.799166 14.9563 0.796962 14.9578 0.794791C15.0352 0.675936 15.0101 0.440395 14.8503 0.292426C14.8064 0.251792 14.7546 0.220573 14.6982 0.200693C14.6418 0.180813 14.5819 0.172693 14.5223 0.176832C14.4626 0.180971 14.4044 0.197281 14.3513 0.22476C14.2981 0.252238 14.2512 0.290301 14.2133 0.336606C14.2104 0.340247 14.2073 0.343832 14.2042 0.347363L5.88389 9.74805C5.85223 9.78382 5.81378 9.81295 5.77077 9.83374C5.72776 9.85452 5.68105 9.86656 5.63335 9.86914C5.58565 9.87172 5.53791 9.86479 5.4929 9.84877C5.4479 9.83274 5.40653 9.80793 5.3712 9.77578L2.60985 7.26294C2.32306 7.00004 1.94822 6.85406 1.55916 6.85377Z" fill="#61AFB3"/>
</svg>
